<svg width="563" height="85" viewBox="0 0 563 85" fill="none" xmlns="http://www.w3.org/2000/svg">
<path d="M44.3 46.08C44.9 45.84 45.4 45.72 45.8 45.72C46.44 45.72 46.92 45.96 47.24 46.44C47.56 46.92 47.72 47.54 47.72 48.3C47.72 49.5 47.42 50.52 46.82 51.36C46.26 52.2 45.28 52.96 43.88 53.64C41.52 54.76 38.46 55.66 34.7 56.34C30.94 56.98 27.24 57.3 23.6 57.3C18.56 57.3 14.34 56.74 10.94 55.62C7.54 54.46 5 52.88 3.32 50.88C1.68 48.88 0.86 46.62 0.86 44.1C0.86 40.66 1.96 37.74 4.16 35.34C6.4 32.9 9.68 31.14 14 30.06C11.64 29.38 9.82 28.18 8.54 26.46C7.3 24.74 6.68 22.82 6.68 20.7C6.68 17.82 7.58 15.28 9.38 13.08C11.22 10.84 13.68 9.12 16.76 7.92C19.84 6.72 23.22 6.12 26.9 6.12C31.86 6.12 35.58 7.2 38.06 9.36C40.54 11.48 41.78 14.24 41.78 17.64C41.78 20 41.34 21.92 40.46 23.4C39.62 24.84 38.4 25.56 36.8 25.56C35.68 25.56 34.8 25.32 34.16 24.84C33.52 24.32 33.2 23.56 33.2 22.56C33.2 21.88 33.3 21.14 33.5 20.34C33.7 19.02 33.8 18.12 33.8 17.64C33.8 16.2 33.26 15.04 32.18 14.16C31.1 13.24 29.3 12.78 26.78 12.78C23.38 12.78 20.66 13.5 18.62 14.94C16.58 16.38 15.56 18.32 15.56 20.76C15.56 22.64 16.32 24.2 17.84 25.44C19.4 26.64 21.92 27.3 25.4 27.42C26.28 27.46 26.9 27.66 27.26 28.02C27.62 28.38 27.8 28.98 27.8 29.82C27.8 32.46 26.6 33.8 24.2 33.84C20.88 33.92 18.12 34.38 15.92 35.22C13.76 36.06 12.18 37.14 11.18 38.46C10.22 39.74 9.74 41.12 9.74 42.6C9.74 45.08 10.9 46.96 13.22 48.24C15.54 49.48 19.22 50.1 24.26 50.1C27.58 50.1 31.08 49.72 34.76 48.96C38.48 48.16 41.66 47.2 44.3 46.08ZM55.3447 58.62C53.2647 58.62 51.6647 58.14 50.5447 57.18C49.4647 56.22 48.9247 55.14 48.9247 53.94C48.9247 52.9 49.3047 52 50.0647 51.24C50.8247 50.48 51.9447 50.1 53.4247 50.1C53.9447 50.1 54.5447 50.16 55.2247 50.28C55.9447 50.36 56.4847 50.42 56.8447 50.46C56.8047 49.42 56.5647 48.44 56.1247 47.52C55.7247 46.6 55.2047 45.72 54.5647 44.88C53.9247 44 53.3247 43.24 52.7647 42.6C51.5247 44.96 50.2847 46.92 49.0447 48.48C47.8447 50.04 46.5247 51.52 45.0847 52.92C44.3647 53.64 43.6047 54 42.8047 54C42.1647 54 41.6447 53.78 41.2447 53.34C40.8447 52.86 40.6447 52.28 40.6447 51.6C40.6447 50.8 40.9247 50.06 41.4847 49.38L42.2647 48.42C44.4647 45.7 46.1247 43.46 47.2447 41.7C47.9247 40.54 48.7247 39 49.6447 37.08C50.5647 35.12 51.4647 33.1 52.3447 31.02C53.1047 29.26 54.6847 28.38 57.0847 28.38C58.2047 28.38 58.9847 28.48 59.4247 28.68C59.8647 28.88 60.0847 29.2 60.0847 29.64C60.0847 29.88 60.0047 30.26 59.8447 30.78C59.6847 31.3 59.4647 31.82 59.1847 32.34C58.4647 33.78 58.1047 35 58.1047 36C58.1047 36.6 58.3047 37.26 58.7047 37.98C59.1447 38.7 59.8047 39.6 60.6847 40.68C61.9647 42.36 62.9247 43.8 63.5647 45C64.2447 46.16 64.5847 47.44 64.5847 48.84C64.5847 49.24 64.5447 49.8 64.4647 50.52C66.4247 49.76 68.7247 47.74 71.3647 44.46C71.8447 43.9 72.3847 43.62 72.9847 43.62C73.5047 43.62 73.9047 43.86 74.1847 44.34C74.5047 44.82 74.6647 45.48 74.6647 46.32C74.6647 47.84 74.2847 49.08 73.5247 50.04C71.5247 52.52 69.6047 54.22 67.7647 55.14C65.9647 56.02 63.7247 56.5 61.0447 56.58C59.4447 57.94 57.5447 58.62 55.3447 58.62ZM96.5502 43.62C97.0702 43.62 97.4702 43.86 97.7502 44.34C98.0702 44.82 98.2302 45.48 98.2302 46.32C98.2302 47.92 97.8502 49.16 97.0902 50.04C95.3702 52.16 93.4902 53.9 91.4502 55.26C89.4102 56.62 87.0702 57.3 84.4302 57.3C76.2702 57.3 72.1902 51.56 72.1902 40.08C72.1902 38.32 72.2502 36.54 72.3702 34.74H70.0302C68.8302 34.74 68.0102 34.52 67.5702 34.08C67.1702 33.64 66.9702 32.94 66.9702 31.98C66.9702 29.74 67.8702 28.62 69.6702 28.62H73.0902C73.7702 24.22 74.8102 20.2 76.2102 16.56C77.6102 12.92 79.2902 10.02 81.2502 7.86C83.2502 5.7 85.3902 4.62 87.6702 4.62C89.3502 4.62 90.6702 5.36 91.6302 6.84C92.5902 8.32 93.0702 10.18 93.0702 12.42C93.0702 18.62 90.4702 24.02 85.2702 28.62H91.9902C92.6302 28.62 93.0902 28.76 93.3702 29.04C93.6502 29.32 93.7902 29.84 93.7902 30.6C93.7902 33.36 91.5302 34.74 87.0102 34.74H79.6902C79.6102 36.74 79.5702 38.3 79.5702 39.42C79.5702 43.58 80.0502 46.5 81.0102 48.18C82.0102 49.86 83.5702 50.7 85.6902 50.7C87.4102 50.7 88.9302 50.18 90.2502 49.14C91.5702 48.1 93.1302 46.54 94.9302 44.46C95.4102 43.9 95.9502 43.62 96.5502 43.62ZM86.0502 10.38C85.4502 10.38 84.7702 11.14 84.0102 12.66C83.2902 14.14 82.5902 16.22 81.9102 18.9C81.2702 21.54 80.7302 24.48 80.2902 27.72C82.6502 25.68 84.4102 23.4 85.5702 20.88C86.7702 18.32 87.3702 16 87.3702 13.92C87.3702 11.56 86.9302 10.38 86.0502 10.38ZM101.205 25.08C99.5248 25.08 98.2648 24.7 97.4248 23.94C96.5848 23.14 96.1648 22.04 96.1648 20.64C96.1648 19.24 96.7048 18.08 97.7848 17.16C98.9048 16.2 100.285 15.72 101.925 15.72C103.405 15.72 104.605 16.08 105.525 16.8C106.445 17.52 106.905 18.54 106.905 19.86C106.905 21.46 106.385 22.74 105.345 23.7C104.305 24.62 102.925 25.08 101.205 25.08ZM100.725 57.3C98.1248 57.3 96.2248 56.38 95.0248 54.54C93.8648 52.7 93.2848 50.26 93.2848 47.22C93.2848 45.42 93.5048 43.12 93.9448 40.32C94.4248 37.48 95.0248 34.84 95.7448 32.4C96.1048 31.12 96.5848 30.24 97.1848 29.76C97.7848 29.28 98.7448 29.04 100.065 29.04C102.105 29.04 103.125 29.72 103.125 31.08C103.125 32.08 102.745 34.4 101.985 38.04C101.025 42.44 100.545 45.42 100.545 46.98C100.545 48.18 100.705 49.1 101.025 49.74C101.345 50.38 101.885 50.7 102.645 50.7C103.365 50.7 104.265 50.2 105.345 49.2C106.425 48.2 107.865 46.62 109.665 44.46C110.145 43.9 110.685 43.62 111.285 43.62C111.805 43.62 112.205 43.86 112.485 44.34C112.805 44.82 112.965 45.48 112.965 46.32C112.965 47.92 112.585 49.16 111.825 50.04C107.865 54.88 104.165 57.3 100.725 57.3ZM130.85 43.62C131.37 43.62 131.77 43.86 132.05 44.34C132.37 44.82 132.53 45.48 132.53 46.32C132.53 47.92 132.15 49.16 131.39 50.04C129.67 52.16 127.79 53.9 125.75 55.26C123.75 56.62 121.47 57.3 118.91 57.3C115.39 57.3 112.77 55.7 111.05 52.5C109.37 49.3 108.53 45.16 108.53 40.08C108.53 35.2 109.15 29.64 110.39 23.4C111.67 17.16 113.53 11.8 115.97 7.32C118.45 2.84 121.39 0.599997 124.79 0.599997C126.71 0.599997 128.21 1.5 129.29 3.3C130.41 5.06 130.97 7.6 130.97 10.92C130.97 15.68 129.65 21.2 127.01 27.48C124.37 33.76 120.79 39.98 116.27 46.14C116.55 47.78 117.01 48.96 117.65 49.68C118.29 50.36 119.13 50.7 120.17 50.7C121.81 50.7 123.25 50.24 124.49 49.32C125.73 48.36 127.31 46.74 129.23 44.46C129.71 43.9 130.25 43.62 130.85 43.62ZM123.47 6.54C122.55 6.54 121.51 8.2 120.35 11.52C119.19 14.84 118.17 18.96 117.29 23.88C116.41 28.8 115.93 33.52 115.85 38.04C118.69 33.36 120.95 28.68 122.63 24C124.31 19.28 125.15 14.98 125.15 11.1C125.15 8.06 124.59 6.54 123.47 6.54ZM137.821 57.3C135.461 57.3 133.441 56.72 131.761 55.56C130.121 54.36 128.881 52.8 128.041 50.88C127.201 48.96 126.781 46.9 126.781 44.7C126.781 41.66 127.341 38.96 128.461 36.6C129.621 34.2 131.181 32.34 133.141 31.02C135.101 29.66 137.301 28.98 139.741 28.98C142.101 28.98 144.121 29.58 145.801 30.78C147.481 31.94 148.741 33.48 149.581 35.4C150.421 37.32 150.841 39.38 150.841 41.58C150.841 44.62 150.261 47.34 149.101 49.74C147.941 52.1 146.361 53.96 144.361 55.32C142.401 56.64 140.221 57.3 137.821 57.3ZM138.481 50.82C139.841 50.82 140.981 50.08 141.901 48.6C142.861 47.12 143.341 44.96 143.341 42.12C143.341 39.92 142.941 38.26 142.141 37.14C141.341 36.02 140.381 35.46 139.261 35.46C137.821 35.46 136.621 36.2 135.661 37.68C134.741 39.12 134.281 41.28 134.281 44.16C134.281 46.44 134.681 48.12 135.481 49.2C136.281 50.28 137.281 50.82 138.481 50.82ZM204.407 45.48C205.327 45.48 205.787 46.1 205.787 47.34C205.787 48.9 205.427 50.12 204.707 51C204.027 51.88 203.087 52.32 201.887 52.32L199.667 52.26C199.267 52.22 198.687 52.2 197.927 52.2C198.087 54.48 198.167 56.76 198.167 59.04C198.167 65.08 197.367 70.34 195.767 74.82C194.207 79.3 191.747 81.54 188.387 81.54C186.107 81.54 184.367 80.22 183.167 77.58C182.007 74.98 181.427 71.8 181.427 68.04C181.427 63.36 181.947 58.74 182.987 54.18C181.627 56.26 179.847 57.3 177.647 57.3C175.447 57.3 173.607 56.38 172.127 54.54C170.687 52.7 169.967 50.32 169.967 47.4C169.967 44.24 170.707 41.24 172.187 38.4C173.707 35.56 175.707 33.28 178.187 31.56C180.707 29.8 183.387 28.92 186.227 28.92C187.187 28.92 187.927 29.24 188.447 29.88C188.807 28.6 189.347 27.74 190.067 27.3C190.787 26.86 191.787 26.64 193.067 26.64C194.427 26.64 195.327 26.84 195.767 27.24C196.247 27.64 196.467 28.22 196.427 28.98C196.427 29.46 196.167 30.58 195.647 32.34C195.167 34.06 194.847 35.2 194.687 35.76C194.047 38 193.347 40.48 192.587 43.2C191.867 45.92 191.287 48.4 190.847 50.64C189.567 57.04 188.927 62.7 188.927 67.62C188.927 69.46 189.067 71.02 189.347 72.3C189.667 73.62 190.067 74.28 190.547 74.28C190.947 74.28 191.367 73.6 191.807 72.24C192.287 70.88 192.687 69.06 193.007 66.78C193.327 64.5 193.487 62.08 193.487 59.52C193.487 56.48 193.347 53.78 193.067 51.42C193.027 51.22 193.007 50.9 193.007 50.46C193.007 49.14 193.327 48.04 193.967 47.16C194.647 46.28 195.587 45.84 196.787 45.84C196.947 45.84 198.467 45.78 201.347 45.66C202.547 45.54 203.567 45.48 204.407 45.48ZM180.047 51.24C180.967 51.24 181.847 50.68 182.687 49.56C183.527 48.4 184.127 47.02 184.487 45.42L187.067 34.5C185.307 34.54 183.687 35.16 182.207 36.36C180.767 37.56 179.607 39.16 178.727 41.16C177.887 43.12 177.467 45.2 177.467 47.4C177.467 48.64 177.687 49.6 178.127 50.28C178.607 50.92 179.247 51.24 180.047 51.24ZM206.867 57.3C205.067 57.3 203.587 56.48 202.427 54.84C201.307 53.16 200.747 51.08 200.747 48.6C200.747 45.6 200.947 42.86 201.347 40.38C201.747 37.86 202.407 35.2 203.327 32.4C203.727 31.2 204.287 30.34 205.007 29.82C205.727 29.3 206.867 29.04 208.427 29.04C209.307 29.04 209.907 29.18 210.227 29.46C210.587 29.74 210.767 30.16 210.767 30.72C210.767 31.04 210.547 32.12 210.107 33.96C209.707 35.44 209.387 36.78 209.147 37.98C208.347 42.18 207.947 44.98 207.947 46.38C207.947 47.22 208.047 47.82 208.247 48.18C208.447 48.5 208.767 48.66 209.207 48.66C209.807 48.66 210.547 48.06 211.427 46.86C212.347 45.66 213.307 43.84 214.307 41.4C215.347 38.96 216.347 35.96 217.307 32.4C217.627 31.2 218.107 30.34 218.747 29.82C219.427 29.3 220.427 29.04 221.747 29.04C222.667 29.04 223.307 29.16 223.667 29.4C224.027 29.6 224.207 30 224.207 30.6C224.207 31.6 223.707 34.34 222.707 38.82C221.587 43.94 221.027 47.1 221.027 48.3C221.027 49.06 221.187 49.66 221.507 50.1C221.827 50.5 222.247 50.7 222.767 50.7C223.567 50.7 224.507 50.22 225.587 49.26C226.707 48.26 228.187 46.66 230.027 44.46C230.507 43.9 231.047 43.62 231.647 43.62C232.167 43.62 232.567 43.86 232.847 44.34C233.167 44.82 233.327 45.48 233.327 46.32C233.327 47.92 232.947 49.16 232.187 50.04C230.467 52.16 228.607 53.9 226.607 55.26C224.647 56.62 222.407 57.3 219.887 57.3C217.967 57.3 216.547 56.56 215.627 55.08C214.747 53.6 214.307 51.52 214.307 48.84C213.627 51.56 212.607 53.66 211.247 55.14C209.887 56.58 208.427 57.3 206.867 57.3ZM249.942 45.42C250.462 45.42 250.862 45.66 251.142 46.14C251.462 46.62 251.622 47.28 251.622 48.12C251.622 49.56 251.282 50.8 250.602 51.84C249.482 53.56 248.002 54.9 246.162 55.86C244.362 56.82 242.202 57.3 239.682 57.3C235.842 57.3 232.862 56.16 230.742 53.88C228.622 51.56 227.562 48.44 227.562 44.52C227.562 41.76 228.142 39.2 229.302 36.84C230.462 34.44 232.062 32.54 234.102 31.14C236.182 29.74 238.522 29.04 241.122 29.04C243.442 29.04 245.302 29.74 246.702 31.14C248.102 32.5 248.802 34.36 248.802 36.72C248.802 39.48 247.802 41.86 245.802 43.86C243.842 45.82 240.482 47.38 235.722 48.54C236.682 50.38 238.302 51.3 240.582 51.3C242.222 51.3 243.562 50.92 244.602 50.16C245.682 49.4 246.922 48.12 248.322 46.32C248.802 45.72 249.342 45.42 249.942 45.42ZM240.102 34.92C238.622 34.92 237.362 35.78 236.322 37.5C235.322 39.22 234.822 41.3 234.822 43.74V43.86C237.182 43.3 239.042 42.46 240.402 41.34C241.762 40.22 242.442 38.92 242.442 37.44C242.442 36.68 242.222 36.08 241.782 35.64C241.382 35.16 240.822 34.92 240.102 34.92ZM295.769 43.62C296.289 43.62 296.689 43.86 296.969 44.34C297.289 44.82 297.449 45.48 297.449 46.32C297.449 47.92 297.069 49.16 296.309 50.04C294.589 52.16 292.709 53.9 290.669 55.26C288.629 56.62 286.289 57.3 283.649 57.3C275.489 57.3 271.409 51.56 271.409 40.08C271.409 38.32 271.469 36.54 271.589 34.74H269.249C268.049 34.74 267.229 34.52 266.789 34.08C266.389 33.64 266.189 32.94 266.189 31.98C266.189 29.74 267.089 28.62 268.889 28.62H272.309C272.989 24.22 274.029 20.2 275.429 16.56C276.829 12.92 278.509 10.02 280.469 7.86C282.469 5.7 284.609 4.62 286.889 4.62C288.569 4.62 289.889 5.36 290.849 6.84C291.809 8.32 292.289 10.18 292.289 12.42C292.289 18.62 289.689 24.02 284.489 28.62H291.209C291.849 28.62 292.309 28.76 292.589 29.04C292.869 29.32 293.009 29.84 293.009 30.6C293.009 33.36 290.749 34.74 286.229 34.74H278.909C278.829 36.74 278.789 38.3 278.789 39.42C278.789 43.58 279.269 46.5 280.229 48.18C281.229 49.86 282.789 50.7 284.909 50.7C286.629 50.7 288.149 50.18 289.469 49.14C290.789 48.1 292.349 46.54 294.149 44.46C294.629 43.9 295.169 43.62 295.769 43.62ZM285.269 10.38C284.669 10.38 283.989 11.14 283.229 12.66C282.509 14.14 281.809 16.22 281.129 18.9C280.489 21.54 279.949 24.48 279.509 27.72C281.869 25.68 283.629 23.4 284.789 20.88C285.989 18.32 286.589 16 286.589 13.92C286.589 11.56 286.149 10.38 285.269 10.38ZM314.044 45.42C314.564 45.42 314.964 45.66 315.244 46.14C315.564 46.62 315.724 47.28 315.724 48.12C315.724 49.56 315.384 50.8 314.704 51.84C313.584 53.56 312.104 54.9 310.264 55.86C308.464 56.82 306.304 57.3 303.784 57.3C299.944 57.3 296.964 56.16 294.844 53.88C292.724 51.56 291.664 48.44 291.664 44.52C291.664 41.76 292.244 39.2 293.404 36.84C294.564 34.44 296.164 32.54 298.204 31.14C300.284 29.74 302.624 29.04 305.224 29.04C307.544 29.04 309.404 29.74 310.804 31.14C312.204 32.5 312.904 34.36 312.904 36.72C312.904 39.48 311.904 41.86 309.904 43.86C307.944 45.82 304.584 47.38 299.824 48.54C300.784 50.38 302.404 51.3 304.684 51.3C306.324 51.3 307.664 50.92 308.704 50.16C309.784 49.4 311.024 48.12 312.424 46.32C312.904 45.72 313.444 45.42 314.044 45.42ZM304.204 34.92C302.724 34.92 301.464 35.78 300.424 37.5C299.424 39.22 298.924 41.3 298.924 43.74V43.86C301.284 43.3 303.144 42.46 304.504 41.34C305.864 40.22 306.544 38.92 306.544 37.44C306.544 36.68 306.324 36.08 305.884 35.64C305.484 35.16 304.924 34.92 304.204 34.92ZM359.87 43.62C360.39 43.62 360.79 43.86 361.07 44.34C361.39 44.82 361.55 45.48 361.55 46.32C361.55 47.92 361.17 49.16 360.41 50.04C358.93 51.84 356.83 53.5 354.11 55.02C351.43 56.54 348.55 57.3 345.47 57.3C341.27 57.3 338.01 56.16 335.69 53.88C333.37 51.6 332.21 48.48 332.21 44.52C332.21 41.76 332.79 39.2 333.95 36.84C335.11 34.44 336.71 32.54 338.75 31.14C340.83 29.74 343.17 29.04 345.77 29.04C348.09 29.04 349.95 29.74 351.35 31.14C352.75 32.5 353.45 34.36 353.45 36.72C353.45 39.48 352.45 41.86 350.45 43.86C348.49 45.82 345.15 47.38 340.43 48.54C341.43 50.38 343.33 51.3 346.13 51.3C347.93 51.3 349.97 50.68 352.25 49.44C354.57 48.16 356.57 46.5 358.25 44.46C358.73 43.9 359.27 43.62 359.87 43.62ZM344.75 34.92C343.27 34.92 342.01 35.78 340.97 37.5C339.97 39.22 339.47 41.3 339.47 43.74V43.86C341.83 43.3 343.69 42.46 345.05 41.34C346.41 40.22 347.09 38.92 347.09 37.44C347.09 36.68 346.87 36.08 346.43 35.64C346.03 35.16 345.47 34.92 344.75 34.92ZM360.925 57.3C359.405 57.3 358.325 56.5 357.685 54.9C357.085 53.3 356.785 50.74 356.785 47.22C356.785 42.02 357.525 37.08 359.005 32.4C359.365 31.24 359.945 30.4 360.745 29.88C361.585 29.32 362.745 29.04 364.225 29.04C365.025 29.04 365.585 29.14 365.905 29.34C366.225 29.54 366.385 29.92 366.385 30.48C366.385 31.12 366.085 32.56 365.485 34.8C365.085 36.4 364.765 37.8 364.525 39C364.285 40.16 364.085 41.62 363.925 43.38C365.005 40.26 366.285 37.62 367.765 35.46C369.285 33.3 370.825 31.7 372.385 30.66C373.985 29.58 375.485 29.04 376.885 29.04C378.285 29.04 379.265 29.36 379.825 30C380.425 30.64 380.725 31.62 380.725 32.94C380.725 34.22 380.345 36.54 379.585 39.9C379.265 41.34 379.045 42.42 378.925 43.14C380.925 38.22 383.145 34.64 385.585 32.4C388.025 30.16 390.305 29.04 392.425 29.04C395.025 29.04 396.325 30.34 396.325 32.94C396.325 34.5 395.885 37.32 395.005 41.4C394.245 44.88 393.865 47.18 393.865 48.3C393.865 49.9 394.445 50.7 395.605 50.7C396.405 50.7 397.345 50.22 398.425 49.26C399.545 48.26 401.025 46.66 402.865 44.46C403.345 43.9 403.885 43.62 404.485 43.62C405.005 43.62 405.405 43.86 405.685 44.34C406.005 44.82 406.165 45.48 406.165 46.32C406.165 47.92 405.785 49.16 405.025 50.04C403.305 52.16 401.445 53.9 399.445 55.26C397.485 56.62 395.245 57.3 392.725 57.3C390.685 57.3 389.145 56.72 388.105 55.56C387.065 54.36 386.545 52.64 386.545 50.4C386.545 49.28 386.825 47.28 387.385 44.4C387.905 41.88 388.165 40.14 388.165 39.18C388.165 38.54 387.945 38.22 387.505 38.22C386.985 38.22 386.245 38.9 385.285 40.26C384.325 41.58 383.365 43.34 382.405 45.54C381.445 47.74 380.665 50.06 380.065 52.5C379.625 54.42 379.105 55.7 378.505 56.34C377.945 56.98 377.025 57.3 375.745 57.3C374.425 57.3 373.425 56.68 372.745 55.44C372.105 54.16 371.785 52.62 371.785 50.82C371.785 49.3 371.985 47.1 372.385 44.22C372.705 41.66 372.865 39.98 372.865 39.18C372.865 38.54 372.645 38.22 372.205 38.22C371.605 38.22 370.845 38.94 369.925 40.38C369.005 41.82 368.105 43.66 367.225 45.9C366.385 48.14 365.705 50.34 365.185 52.5C364.745 54.38 364.225 55.66 363.625 56.34C363.065 56.98 362.165 57.3 360.925 57.3ZM433.354 43.62C433.874 43.62 434.274 43.86 434.554 44.34C434.874 44.82 435.034 45.48 435.034 46.32C435.034 47.92 434.654 49.16 433.894 50.04C432.174 52.16 430.314 53.9 428.314 55.26C426.354 56.62 424.114 57.3 421.594 57.3C419.474 57.3 417.754 56.54 416.434 55.02C414.154 56.5 411.774 57.26 409.294 57.3C408.774 65.02 407.594 71.46 405.754 76.62C403.914 81.82 401.214 84.42 397.654 84.42C395.494 84.42 393.894 83.64 392.854 82.08C391.814 80.52 391.294 78.36 391.294 75.6C391.294 71.68 392.194 67.1 393.994 61.86C395.794 56.66 398.574 50.92 402.334 44.64C402.334 38.8 402.294 34.74 402.214 32.46C402.174 31.3 402.634 30.38 403.594 29.7C404.554 29.02 405.754 28.68 407.194 28.68C408.034 28.68 408.634 28.86 408.994 29.22C409.394 29.54 409.614 30.2 409.654 31.2C409.654 32.2 409.674 32.94 409.714 33.42C410.994 31.82 412.254 30.68 413.494 30C414.734 29.28 416.054 28.92 417.454 28.92C419.694 28.92 421.514 29.82 422.914 31.62C424.354 33.42 425.074 35.78 425.074 38.7C425.074 40.82 424.734 42.88 424.054 44.88C423.374 46.88 422.434 48.7 421.234 50.34C422.074 50.58 422.774 50.7 423.334 50.7C424.654 50.7 425.914 50.22 427.114 49.26C428.314 48.3 429.854 46.7 431.734 44.46C432.214 43.9 432.754 43.62 433.354 43.62ZM409.594 51.54C411.034 51.22 412.354 50.44 413.554 49.2C414.794 47.92 415.774 46.36 416.494 44.52C417.214 42.64 417.574 40.68 417.574 38.64C417.574 37.44 417.334 36.54 416.854 35.94C416.374 35.3 415.734 34.98 414.934 34.98C413.494 34.98 411.754 36.5 409.714 39.54C409.674 41.3 409.654 43.88 409.654 47.28C409.654 49.12 409.634 50.54 409.594 51.54ZM398.134 78.54C399.214 78.54 400.114 76.18 400.834 71.46C401.554 66.78 402.014 60.94 402.214 53.94C400.494 57.94 399.134 61.76 398.134 65.4C397.134 69.04 396.634 72.1 396.634 74.58C396.634 75.86 396.794 76.84 397.114 77.52C397.394 78.2 397.734 78.54 398.134 78.54ZM460.8 38.58C461.32 38.58 461.72 38.84 462 39.36C462.28 39.88 462.42 40.54 462.42 41.34C462.42 43.26 461.84 44.4 460.68 44.76C458.28 45.6 455.64 46.08 452.76 46.2C452 49.56 450.5 52.26 448.26 54.3C446.02 56.3 443.48 57.3 440.64 57.3C438.24 57.3 436.18 56.72 434.46 55.56C432.78 54.4 431.5 52.86 430.62 50.94C429.74 49.02 429.3 46.94 429.3 44.7C429.3 41.66 429.88 38.96 431.04 36.6C432.2 34.2 433.8 32.34 435.84 31.02C437.88 29.66 440.14 28.98 442.62 28.98C445.66 28.98 448.1 30.04 449.94 32.16C451.82 34.24 452.92 36.82 453.24 39.9C455.12 39.78 457.36 39.38 459.96 38.7C460.28 38.62 460.56 38.58 460.8 38.58ZM441.12 50.94C442.4 50.94 443.5 50.42 444.42 49.38C445.38 48.34 446.02 46.84 446.34 44.88C445.1 44.04 444.14 42.94 443.46 41.58C442.82 40.22 442.5 38.78 442.5 37.26C442.5 36.62 442.56 35.98 442.68 35.34H442.38C440.78 35.34 439.44 36.12 438.36 37.68C437.32 39.2 436.8 41.36 436.8 44.16C436.8 46.36 437.22 48.04 438.06 49.2C438.94 50.36 439.96 50.94 441.12 50.94ZM491.351 43.62C491.871 43.62 492.271 43.86 492.551 44.34C492.871 44.82 493.031 45.48 493.031 46.32C493.031 47.92 492.651 49.16 491.891 50.04C490.251 52.04 488.451 53.76 486.491 55.2C484.531 56.6 482.591 57.3 480.671 57.3C477.631 57.3 475.311 55.52 473.711 51.96C472.031 54.08 470.551 55.5 469.271 56.22C468.031 56.94 466.571 57.3 464.891 57.3C462.451 57.3 460.431 56.4 458.831 54.6C457.271 52.76 456.491 50.38 456.491 47.46C456.491 44.26 457.171 41.3 458.531 38.58C459.891 35.82 461.751 33.58 464.111 31.86C466.511 30.1 469.191 29.06 472.151 28.74C472.911 20.98 474.351 14.36 476.471 8.88C478.631 3.36 481.451 0.599997 484.931 0.599997C486.651 0.599997 488.071 1.38 489.191 2.94C490.351 4.5 490.931 6.86 490.931 10.02C490.931 14.5 489.831 19.74 487.631 25.74C485.431 31.74 482.491 37.9 478.811 44.22C478.971 46.54 479.311 48.2 479.831 49.2C480.391 50.2 481.091 50.7 481.931 50.7C483.011 50.7 484.111 50.22 485.231 49.26C486.351 48.3 487.851 46.7 489.731 44.46C490.211 43.9 490.751 43.62 491.351 43.62ZM484.271 6.48C483.511 6.48 482.751 7.84 481.991 10.56C481.231 13.24 480.571 16.76 480.011 21.12C479.491 25.48 479.111 30.04 478.871 34.8C483.351 25.04 485.591 17.2 485.591 11.28C485.591 9.76 485.451 8.58 485.171 7.74C484.931 6.9 484.631 6.48 484.271 6.48ZM466.991 51.24C467.751 51.24 468.511 50.94 469.271 50.34C470.031 49.7 470.991 48.54 472.151 46.86C471.751 44.7 471.551 42.28 471.551 39.6C471.551 38.64 471.591 37.08 471.671 34.92C469.471 35.6 467.631 37.08 466.151 39.36C464.711 41.6 463.991 44.1 463.991 46.86C463.991 49.78 464.991 51.24 466.991 51.24ZM514.91 43.62C515.43 43.62 515.83 43.86 516.11 44.34C516.43 44.82 516.59 45.48 516.59 46.32C516.59 47.92 516.21 49.16 515.45 50.04C513.97 51.84 511.87 53.5 509.15 55.02C506.47 56.54 503.59 57.3 500.51 57.3C496.31 57.3 493.05 56.16 490.73 53.88C488.41 51.6 487.25 48.48 487.25 44.52C487.25 41.76 487.83 39.2 488.99 36.84C490.15 34.44 491.75 32.54 493.79 31.14C495.87 29.74 498.21 29.04 500.81 29.04C503.13 29.04 504.99 29.74 506.39 31.14C507.79 32.5 508.49 34.36 508.49 36.72C508.49 39.48 507.49 41.86 505.49 43.86C503.53 45.82 500.19 47.38 495.47 48.54C496.47 50.38 498.37 51.3 501.17 51.3C502.97 51.3 505.01 50.68 507.29 49.44C509.61 48.16 511.61 46.5 513.29 44.46C513.77 43.9 514.31 43.62 514.91 43.62ZM499.79 34.92C498.31 34.92 497.05 35.78 496.01 37.5C495.01 39.22 494.51 41.3 494.51 43.74V43.86C496.87 43.3 498.73 42.46 500.09 41.34C501.45 40.22 502.13 38.92 502.13 37.44C502.13 36.68 501.91 36.08 501.47 35.64C501.07 35.16 500.51 34.92 499.79 34.92ZM515.964 57.3C514.444 57.3 513.364 56.5 512.724 54.9C512.124 53.3 511.824 50.74 511.824 47.22C511.824 42.02 512.564 37.08 514.044 32.4C514.404 31.24 514.984 30.4 515.784 29.88C516.624 29.32 517.784 29.04 519.264 29.04C520.064 29.04 520.624 29.14 520.944 29.34C521.264 29.54 521.424 29.92 521.424 30.48C521.424 31.12 521.124 32.56 520.524 34.8C520.124 36.4 519.804 37.8 519.564 39C519.324 40.2 519.124 41.68 518.964 43.44C520.284 40 521.764 37.2 523.404 35.04C525.044 32.88 526.644 31.34 528.204 30.42C529.804 29.5 531.264 29.04 532.584 29.04C535.184 29.04 536.484 30.34 536.484 32.94C536.484 33.46 536.304 34.72 535.944 36.72C535.624 38.32 535.464 39.32 535.464 39.72C535.464 41.12 535.964 41.82 536.964 41.82C538.084 41.82 539.524 40.94 541.284 39.18C541.804 38.66 542.344 38.4 542.904 38.4C543.424 38.4 543.824 38.64 544.104 39.12C544.424 39.56 544.584 40.16 544.584 40.92C544.584 42.4 544.184 43.56 543.384 44.4C542.264 45.56 540.944 46.56 539.424 47.4C537.944 48.2 536.364 48.6 534.684 48.6C532.564 48.6 530.944 48.06 529.824 46.98C528.744 45.9 528.204 44.44 528.204 42.6C528.204 42 528.264 41.4 528.384 40.8C528.464 40 528.504 39.46 528.504 39.18C528.504 38.54 528.284 38.22 527.844 38.22C527.244 38.22 526.444 38.9 525.444 40.26C524.484 41.58 523.524 43.34 522.564 45.54C521.604 47.74 520.824 50.06 520.224 52.5C519.784 54.38 519.264 55.66 518.664 56.34C518.104 56.98 517.204 57.3 515.964 57.3ZM545.909 57.3C543.629 57.3 541.769 56.4 540.329 54.6C538.929 52.8 538.229 50.44 538.229 47.52C538.229 44.32 538.969 41.3 540.449 38.46C541.929 35.58 543.889 33.28 546.329 31.56C548.809 29.8 551.429 28.92 554.189 28.92C555.069 28.92 555.649 29.1 555.929 29.46C556.249 29.78 556.509 30.38 556.709 31.26C557.469 31.1 558.309 31.02 559.229 31.02C560.189 31.02 560.929 31.26 561.449 31.74C561.969 32.22 562.229 32.9 562.229 33.78C562.229 34.7 562.029 36.3 561.629 38.58C561.189 41.02 560.849 43.36 560.609 45.6C560.369 47.8 560.249 50.28 560.249 53.04C560.249 54.56 559.929 55.66 559.289 56.34C558.689 56.98 557.689 57.3 556.289 57.3C554.929 57.3 553.909 56.98 553.229 56.34C552.589 55.66 552.269 54.58 552.269 53.1L552.329 52.14C551.089 55.58 548.949 57.3 545.909 57.3ZM548.249 51.24C549.369 51.24 550.389 50.46 551.309 48.9C552.229 47.34 553.049 44.56 553.769 40.56L554.909 34.5C553.269 34.54 551.749 35.18 550.349 36.42C548.949 37.62 547.829 39.22 546.989 41.22C546.149 43.22 545.729 45.34 545.729 47.58C545.729 48.78 545.949 49.7 546.389 50.34C546.869 50.94 547.489 51.24 548.249 51.24Z" fill="white"/>
</svg>
