<svg width="540" height="39" viewBox="0 0 540 39" fill="none" xmlns="http://www.w3.org/2000/svg">
<path d="M39.96 29.08C40.3067 29.08 40.5733 29.24 40.76 29.56C40.9733 29.88 41.08 30.32 41.08 30.88C41.08 31.92 40.8267 32.7467 40.32 33.36C37.68 36.5867 34.8667 38.2 31.88 38.2C29.2933 38.2 27.2267 37.2 25.68 35.2C24.1333 33.2 23.36 30.3333 23.36 26.6C23.36 25.6933 23.4 24.7867 23.48 23.88C21.72 24.2 19.8 24.44 17.72 24.6C16.3333 24.7067 15.3867 24.7733 14.88 24.8C14.3467 27.52 13.6 30.8533 12.64 34.8C12.08 37.12 11.0133 38.28 9.44 38.28C7.73333 38.28 6.88 37.5067 6.88 35.96C6.88 35.6133 6.94667 35.1333 7.08 34.52C7.98667 30.8667 8.70667 27.7733 9.24 25.24L7.32 25.32C6.44 25.32 5.8 25.1733 5.4 24.88C5 24.56 4.8 24.0533 4.8 23.36C4.8 22.48 5.05333 21.84 5.56 21.44C6.06667 21.0133 6.90667 20.7733 8.08 20.72L10.2 20.64C10.8933 16.88 11.24 14.0133 11.24 12.04C11.24 10.7867 11.0533 9.93333 10.68 9.48C10.3067 9.02667 9.81333 8.8 9.2 8.8C7.33333 8.8 5.22667 10.36 2.88 13.48C2.53333 13.9333 2.14667 14.16 1.72 14.16C1.34667 14.16 1.02667 13.9867 0.76 13.64C0.493333 13.2933 0.36 12.8533 0.36 12.32C0.36 11.4933 0.693333 10.6133 1.36 9.68C2.53333 8.05333 4.01333 6.72 5.8 5.68C7.58667 4.61333 9.4 4.08 11.24 4.08C12.9733 4.08 14.3067 4.68 15.24 5.88C16.2 7.05333 16.68 8.89333 16.68 11.4C16.68 13.6133 16.36 16.6133 15.72 20.4L19.64 20.2C21.32 20.12 22.76 19.9867 23.96 19.8C24.44 16.8667 25.1733 14.12 26.16 11.56C27.1467 9 28.3733 6.92 29.84 5.32C31.3067 3.72 32.9467 2.92 34.76 2.92C36.0933 2.92 37.1467 3.45333 37.92 4.52C38.6933 5.56 39.08 6.93333 39.08 8.64C39.08 15.2533 35.7067 19.84 28.96 22.4C28.88 23.4667 28.84 24.5733 28.84 25.72C28.84 28.52 29.1867 30.5067 29.88 31.68C30.5733 32.8533 31.5467 33.44 32.8 33.44C33.8933 33.44 34.8933 33.16 35.8 32.6C36.7067 32.0133 37.7333 31.0267 38.88 29.64C39.2 29.2667 39.56 29.08 39.96 29.08ZM34.56 6.4C33.9733 6.4 33.3467 6.93333 32.68 8C32.04 9.06666 31.4267 10.52 30.84 12.36C30.2533 14.2 29.7867 16.2133 29.44 18.4C31.5733 17.52 33.1467 16.2667 34.16 14.64C35.1733 13.0133 35.68 10.92 35.68 8.36C35.68 7.74666 35.5733 7.26666 35.36 6.92C35.1467 6.57333 34.88 6.4 34.56 6.4ZM42.7619 38.2C41.1085 38.2 39.7885 37.6 38.8019 36.4C37.8152 35.2 37.3219 33.6267 37.3219 31.68C37.3219 29.5467 37.8152 27.5333 38.8019 25.64C39.7885 23.72 41.0952 22.1867 42.7219 21.04C44.3752 19.8667 46.1219 19.28 47.9619 19.28C48.5485 19.28 48.9352 19.4 49.1219 19.64C49.3352 19.8533 49.5085 20.2533 49.6419 20.84C50.2019 20.7333 50.7885 20.68 51.4019 20.68C52.7085 20.68 53.3619 21.1467 53.3619 22.08C53.3619 22.64 53.1619 23.9733 52.7619 26.08C52.1485 29.1467 51.8419 31.28 51.8419 32.48C51.8419 32.88 51.9352 33.2 52.1219 33.44C52.3352 33.68 52.6019 33.8 52.9219 33.8C53.4285 33.8 54.0419 33.48 54.7619 32.84C55.4819 32.1733 56.4552 31.1067 57.6819 29.64C58.0019 29.2667 58.3619 29.08 58.7619 29.08C59.1085 29.08 59.3752 29.24 59.5619 29.56C59.7752 29.88 59.8819 30.32 59.8819 30.88C59.8819 31.9467 59.6285 32.7733 59.1219 33.36C58.0285 34.72 56.8685 35.8667 55.6419 36.8C54.4152 37.7333 53.2285 38.2 52.0819 38.2C51.2019 38.2 50.3885 37.9067 49.6419 37.32C48.9219 36.7067 48.3752 35.88 48.0019 34.84C46.6152 37.08 44.8685 38.2 42.7619 38.2ZM44.2019 34.16C44.7885 34.16 45.3485 33.8133 45.8819 33.12C46.4152 32.4267 46.8019 31.5067 47.0419 30.36L48.5219 23C47.4019 23.0267 46.3619 23.4533 45.4019 24.28C44.4685 25.08 43.7219 26.1467 43.1619 27.48C42.6019 28.8133 42.3219 30.2267 42.3219 31.72C42.3219 32.5467 42.4819 33.16 42.8019 33.56C43.1485 33.96 43.6152 34.16 44.2019 34.16ZM70.3109 33.64C70.8976 33.6133 71.3376 33.8267 71.6309 34.28C71.9509 34.7067 72.1109 35.24 72.1109 35.88C72.1109 36.5467 71.9509 37.1333 71.6309 37.64C71.3376 38.1467 70.9243 38.4 70.3909 38.4C69.4309 38.4 68.5243 38.3867 67.6709 38.36C66.8443 38.3333 66.1109 38.3067 65.4709 38.28C63.0176 38.1733 61.2843 38.12 60.2709 38.12C59.9243 38.12 59.4176 38.24 58.7509 38.48C57.8976 38.7467 57.3109 38.88 56.9909 38.88C55.5776 38.88 54.8709 37.9733 54.8709 36.16C54.8709 34.9333 55.3109 33.5467 56.1909 32C57.0709 30.4267 58.2176 28.9067 59.6309 27.44C61.0443 25.9733 62.5109 24.7467 64.0309 23.76L58.3909 23.92C57.8043 23.9467 57.3509 23.7467 57.0309 23.32C56.7376 22.8667 56.5909 22.3333 56.5909 21.72C56.5909 21.08 56.7376 20.52 57.0309 20.04C57.3509 19.5333 57.7776 19.28 58.3109 19.28C59.4843 19.28 60.9376 19.3733 62.6709 19.56C62.9643 19.5867 63.5909 19.64 64.5509 19.72C65.5376 19.8 66.4443 19.84 67.2709 19.84C67.5376 19.84 68.0443 19.7333 68.7909 19.52C68.9243 19.4933 69.1776 19.4267 69.5509 19.32C69.9509 19.2133 70.2843 19.16 70.5509 19.16C70.9776 19.16 71.3243 19.3467 71.5909 19.72C71.8843 20.0933 72.0309 20.6667 72.0309 21.44C72.0309 22.2933 71.8176 22.9733 71.3909 23.48C70.9909 23.9867 70.3776 24.44 69.5509 24.84C68.6176 25.2667 67.5243 26 66.2709 27.04C65.0176 28.08 63.8309 29.24 62.7109 30.52C61.5909 31.7733 60.7643 32.96 60.2309 34.08L70.3109 33.64ZM106.421 29.08C106.768 29.08 107.035 29.24 107.221 29.56C107.435 29.88 107.541 30.32 107.541 30.88C107.541 31.9467 107.288 32.7733 106.781 33.36C105.688 34.6933 104.488 35.84 103.181 36.8C101.875 37.7333 100.581 38.2 99.3013 38.2C97.2746 38.2 95.7279 37.0133 94.6613 34.64C93.5413 36.0533 92.5546 37 91.7013 37.48C90.8746 37.96 89.9013 38.2 88.7813 38.2C87.1546 38.2 85.8079 37.6 84.7413 36.4C83.7013 35.1733 83.1813 33.5867 83.1813 31.64C83.1813 29.5067 83.6346 27.5333 84.5413 25.72C85.4479 23.88 86.6879 22.3867 88.2613 21.24C89.8613 20.0667 91.6479 19.3733 93.6213 19.16C94.1279 13.9867 95.0879 9.57333 96.5013 5.92C97.9413 2.24 99.8213 0.399998 102.141 0.399998C103.288 0.399998 104.235 0.919998 104.981 1.96C105.755 3 106.141 4.57333 106.141 6.68C106.141 9.66667 105.408 13.16 103.941 17.16C102.475 21.16 100.515 25.2667 98.0613 29.48C98.1679 31.0267 98.3946 32.1333 98.7413 32.8C99.1146 33.4667 99.5813 33.8 100.141 33.8C100.861 33.8 101.595 33.48 102.341 32.84C103.088 32.2 104.088 31.1333 105.341 29.64C105.661 29.2667 106.021 29.08 106.421 29.08ZM101.701 4.32C101.195 4.32 100.688 5.22666 100.181 7.04C99.6746 8.82667 99.2346 11.1733 98.8613 14.08C98.5146 16.9867 98.2613 20.0267 98.1013 23.2C101.088 16.6933 102.581 11.4667 102.581 7.52C102.581 6.50667 102.488 5.72 102.301 5.16C102.141 4.6 101.941 4.32 101.701 4.32ZM90.1813 34.16C90.6879 34.16 91.1946 33.96 91.7013 33.56C92.2079 33.1333 92.8479 32.36 93.6213 31.24C93.3546 29.8 93.2213 28.1867 93.2213 26.4C93.2213 25.76 93.2479 24.72 93.3013 23.28C91.8346 23.7333 90.6079 24.72 89.6213 26.24C88.6613 27.7333 88.1813 29.4 88.1813 31.24C88.1813 33.1867 88.8479 34.16 90.1813 34.16ZM118.607 30.28C118.954 30.28 119.221 30.44 119.407 30.76C119.621 31.08 119.727 31.52 119.727 32.08C119.727 33.04 119.501 33.8667 119.047 34.56C118.301 35.7067 117.314 36.6 116.087 37.24C114.887 37.88 113.447 38.2 111.767 38.2C109.207 38.2 107.221 37.44 105.807 35.92C104.394 34.3733 103.687 32.2933 103.687 29.68C103.687 27.84 104.074 26.1333 104.847 24.56C105.621 22.96 106.687 21.6933 108.047 20.76C109.434 19.8267 110.994 19.36 112.727 19.36C114.274 19.36 115.514 19.8267 116.447 20.76C117.381 21.6667 117.847 22.9067 117.847 24.48C117.847 26.32 117.181 27.9067 115.847 29.24C114.541 30.5467 112.301 31.5867 109.127 32.36C109.767 33.5867 110.847 34.2 112.367 34.2C113.461 34.2 114.354 33.9467 115.047 33.44C115.767 32.9333 116.594 32.08 117.527 30.88C117.847 30.48 118.207 30.28 118.607 30.28ZM112.047 23.28C111.061 23.28 110.221 23.8533 109.527 25C108.861 26.1467 108.527 27.5333 108.527 29.16V29.24C110.101 28.8667 111.341 28.3067 112.247 27.56C113.154 26.8133 113.607 25.9467 113.607 24.96C113.607 24.4533 113.461 24.0533 113.167 23.76C112.901 23.44 112.527 23.28 112.047 23.28ZM138.958 38.2C136.345 38.2 134.305 37.4667 132.838 36C131.398 34.5067 130.678 32.5467 130.678 30.12C130.678 27.96 131.105 26.0667 131.958 24.44C132.812 22.8133 133.918 21.56 135.278 20.68C136.638 19.8 138.065 19.36 139.558 19.36C141.025 19.36 142.158 19.8 142.958 20.68C143.785 21.5333 144.198 22.64 144.198 24C144.198 25.12 143.945 26.0667 143.438 26.84C142.958 27.6133 142.318 28 141.518 28C141.012 28 140.598 27.88 140.278 27.64C139.985 27.4 139.838 27.0667 139.838 26.64C139.838 26.4533 139.865 26.24 139.918 26C139.972 25.76 140.012 25.5867 140.038 25.48C140.172 25.08 140.238 24.7067 140.238 24.36C140.238 24.0133 140.145 23.7467 139.958 23.56C139.798 23.3733 139.558 23.28 139.238 23.28C138.625 23.28 138.052 23.56 137.518 24.12C136.985 24.6533 136.558 25.3867 136.238 26.32C135.918 27.2533 135.758 28.28 135.758 29.4C135.758 32.4933 137.105 34.04 139.798 34.04C140.892 34.04 142.065 33.68 143.318 32.96C144.598 32.2133 145.852 31.1067 147.078 29.64C147.398 29.2667 147.758 29.08 148.158 29.08C148.505 29.08 148.772 29.24 148.958 29.56C149.172 29.88 149.278 30.32 149.278 30.88C149.278 31.8933 149.025 32.72 148.518 33.36C147.265 34.9067 145.758 36.1067 143.998 36.96C142.265 37.7867 140.585 38.2 138.958 38.2ZM150.574 38.2C148.921 38.2 147.601 37.6 146.614 36.4C145.628 35.2 145.134 33.6267 145.134 31.68C145.134 29.5467 145.628 27.5333 146.614 25.64C147.601 23.72 148.908 22.1867 150.534 21.04C152.188 19.8667 153.934 19.28 155.774 19.28C156.361 19.28 156.748 19.4 156.934 19.64C157.148 19.8533 157.321 20.2533 157.454 20.84C158.014 20.7333 158.601 20.68 159.214 20.68C160.521 20.68 161.174 21.1467 161.174 22.08C161.174 22.64 160.974 23.9733 160.574 26.08C159.961 29.1467 159.654 31.28 159.654 32.48C159.654 32.88 159.748 33.2 159.934 33.44C160.148 33.68 160.414 33.8 160.734 33.8C161.241 33.8 161.854 33.48 162.574 32.84C163.294 32.1733 164.268 31.1067 165.494 29.64C165.814 29.2667 166.174 29.08 166.574 29.08C166.921 29.08 167.188 29.24 167.374 29.56C167.588 29.88 167.694 30.32 167.694 30.88C167.694 31.9467 167.441 32.7733 166.934 33.36C165.841 34.72 164.681 35.8667 163.454 36.8C162.228 37.7333 161.041 38.2 159.894 38.2C159.014 38.2 158.201 37.9067 157.454 37.32C156.734 36.7067 156.188 35.88 155.814 34.84C154.428 37.08 152.681 38.2 150.574 38.2ZM152.014 34.16C152.601 34.16 153.161 33.8133 153.694 33.12C154.228 32.4267 154.614 31.5067 154.854 30.36L156.334 23C155.214 23.0267 154.174 23.4533 153.214 24.28C152.281 25.08 151.534 26.1467 150.974 27.48C150.414 28.8133 150.134 30.2267 150.134 31.72C150.134 32.5467 150.294 33.16 150.614 33.56C150.961 33.96 151.428 34.16 152.014 34.16ZM187.163 29.08C187.51 29.08 187.777 29.24 187.963 29.56C188.177 29.88 188.283 30.32 188.283 30.88C188.283 31.9467 188.03 32.7733 187.523 33.36C186.43 34.6933 185.23 35.84 183.923 36.8C182.617 37.7333 181.323 38.2 180.043 38.2C178.017 38.2 176.47 37.0133 175.403 34.64C174.283 36.0533 173.297 37 172.443 37.48C171.617 37.96 170.643 38.2 169.523 38.2C167.897 38.2 166.55 37.6 165.483 36.4C164.443 35.1733 163.923 33.5867 163.923 31.64C163.923 29.5067 164.377 27.5333 165.283 25.72C166.19 23.88 167.43 22.3867 169.003 21.24C170.603 20.0667 172.39 19.3733 174.363 19.16C174.87 13.9867 175.83 9.57333 177.243 5.92C178.683 2.24 180.563 0.399998 182.883 0.399998C184.03 0.399998 184.977 0.919998 185.723 1.96C186.497 3 186.883 4.57333 186.883 6.68C186.883 9.66667 186.15 13.16 184.683 17.16C183.217 21.16 181.257 25.2667 178.803 29.48C178.91 31.0267 179.137 32.1333 179.483 32.8C179.857 33.4667 180.323 33.8 180.883 33.8C181.603 33.8 182.337 33.48 183.083 32.84C183.83 32.2 184.83 31.1333 186.083 29.64C186.403 29.2667 186.763 29.08 187.163 29.08ZM182.443 4.32C181.937 4.32 181.43 5.22666 180.923 7.04C180.417 8.82667 179.977 11.1733 179.603 14.08C179.257 16.9867 179.003 20.0267 178.843 23.2C181.83 16.6933 183.323 11.4667 183.323 7.52C183.323 6.50667 183.23 5.72 183.043 5.16C182.883 4.6 182.683 4.32 182.443 4.32ZM170.923 34.16C171.43 34.16 171.937 33.96 172.443 33.56C172.95 33.1333 173.59 32.36 174.363 31.24C174.097 29.8 173.963 28.1867 173.963 26.4C173.963 25.76 173.99 24.72 174.043 23.28C172.577 23.7333 171.35 24.72 170.363 26.24C169.403 27.7333 168.923 29.4 168.923 31.24C168.923 33.1867 169.59 34.16 170.923 34.16ZM189.239 38.2C187.719 38.2 186.479 37.6 185.519 36.4C184.585 35.2 184.119 33.6267 184.119 31.68C184.119 29.5467 184.612 27.5333 185.599 25.64C186.585 23.72 187.892 22.1867 189.519 21.04C191.172 19.8667 192.919 19.28 194.759 19.28C195.345 19.28 195.732 19.4 195.919 19.64C196.132 19.8533 196.305 20.2533 196.439 20.84C196.945 20.7333 197.505 20.68 198.119 20.68C198.759 20.68 199.252 20.84 199.599 21.16C199.945 21.48 200.119 21.9333 200.119 22.52C200.119 23.1333 199.985 24.2 199.719 25.72C199.425 27.3467 199.199 28.9067 199.039 30.4C198.879 31.8667 198.799 33.52 198.799 35.36C198.799 36.3733 198.585 37.1067 198.159 37.56C197.759 37.9867 197.092 38.2 196.159 38.2C195.252 38.2 194.572 37.9867 194.119 37.56C193.692 37.1067 193.479 36.3867 193.479 35.4L193.519 34.76C192.692 37.0533 191.265 38.2 189.239 38.2ZM190.799 34.16C191.545 34.16 192.225 33.64 192.839 32.6C193.452 31.56 193.999 29.7067 194.479 27.04L195.239 23C194.145 23.0267 193.132 23.4533 192.199 24.28C191.265 25.08 190.519 26.1467 189.959 27.48C189.399 28.8133 189.119 30.2267 189.119 31.72C189.119 32.52 189.265 33.1333 189.559 33.56C189.879 33.96 190.292 34.16 190.799 34.16ZM228.705 29.08C229.052 29.08 229.318 29.24 229.505 29.56C229.718 29.88 229.825 30.32 229.825 30.88C229.825 31.9467 229.572 32.7733 229.065 33.36C227.918 34.7733 226.665 35.9333 225.305 36.84C223.972 37.7467 222.452 38.2 220.745 38.2C218.398 38.2 216.652 37.1333 215.505 35C214.385 32.8667 213.825 30.1067 213.825 26.72C213.825 23.4667 214.238 19.76 215.065 15.6C215.918 11.44 217.158 7.86667 218.785 4.88C220.438 1.89333 222.398 0.399998 224.665 0.399998C225.945 0.399998 226.945 0.999998 227.665 2.2C228.412 3.37333 228.785 5.06667 228.785 7.28C228.785 10.4533 227.905 14.1333 226.145 18.32C224.385 22.5067 221.998 26.6533 218.985 30.76C219.172 31.8533 219.478 32.64 219.905 33.12C220.332 33.5733 220.892 33.8 221.585 33.8C222.678 33.8 223.638 33.4933 224.465 32.88C225.292 32.24 226.345 31.16 227.625 29.64C227.945 29.2667 228.305 29.08 228.705 29.08ZM223.785 4.36C223.172 4.36 222.478 5.46667 221.705 7.68C220.932 9.89333 220.252 12.64 219.665 15.92C219.078 19.2 218.758 22.3467 218.705 25.36C220.598 22.24 222.105 19.12 223.225 16C224.345 12.8533 224.905 9.98666 224.905 7.4C224.905 5.37333 224.532 4.36 223.785 4.36ZM246.992 25.72C247.339 25.72 247.605 25.8933 247.792 26.24C247.979 26.5867 248.072 27.0267 248.072 27.56C248.072 28.84 247.685 29.6 246.912 29.84C245.312 30.4 243.552 30.72 241.632 30.8C241.125 33.04 240.125 34.84 238.632 36.2C237.139 37.5333 235.445 38.2 233.552 38.2C231.952 38.2 230.579 37.8133 229.432 37.04C228.312 36.2667 227.459 35.24 226.872 33.96C226.285 32.68 225.992 31.2933 225.992 29.8C225.992 27.7733 226.379 25.9733 227.152 24.4C227.925 22.8 228.992 21.56 230.352 20.68C231.712 19.7733 233.219 19.32 234.872 19.32C236.899 19.32 238.525 20.0267 239.752 21.44C241.005 22.8267 241.739 24.5467 241.952 26.6C243.205 26.52 244.699 26.2533 246.432 25.8C246.645 25.7467 246.832 25.72 246.992 25.72ZM233.872 33.96C234.725 33.96 235.459 33.6133 236.072 32.92C236.712 32.2267 237.139 31.2267 237.352 29.92C236.525 29.36 235.885 28.6267 235.432 27.72C235.005 26.8133 234.792 25.8533 234.792 24.84C234.792 24.4133 234.832 23.9867 234.912 23.56H234.712C233.645 23.56 232.752 24.08 232.032 25.12C231.339 26.1333 230.992 27.5733 230.992 29.44C230.992 30.9067 231.272 32.0267 231.832 32.8C232.419 33.5733 233.099 33.96 233.872 33.96ZM265.039 25.72C265.385 25.72 265.652 25.8933 265.839 26.24C266.025 26.5867 266.119 27.0267 266.119 27.56C266.119 28.84 265.732 29.6 264.959 29.84C263.359 30.4 261.599 30.72 259.679 30.8C259.172 33.04 258.172 34.84 256.679 36.2C255.185 37.5333 253.492 38.2 251.599 38.2C249.999 38.2 248.625 37.8133 247.479 37.04C246.359 36.2667 245.505 35.24 244.919 33.96C244.332 32.68 244.039 31.2933 244.039 29.8C244.039 27.7733 244.425 25.9733 245.199 24.4C245.972 22.8 247.039 21.56 248.399 20.68C249.759 19.7733 251.265 19.32 252.919 19.32C254.945 19.32 256.572 20.0267 257.799 21.44C259.052 22.8267 259.785 24.5467 259.999 26.6C261.252 26.52 262.745 26.2533 264.479 25.8C264.692 25.7467 264.879 25.72 265.039 25.72ZM251.919 33.96C252.772 33.96 253.505 33.6133 254.119 32.92C254.759 32.2267 255.185 31.2267 255.399 29.92C254.572 29.36 253.932 28.6267 253.479 27.72C253.052 26.8133 252.839 25.8533 252.839 24.84C252.839 24.4133 252.879 23.9867 252.959 23.56H252.759C251.692 23.56 250.799 24.08 250.079 25.12C249.385 26.1333 249.039 27.5733 249.039 29.44C249.039 30.9067 249.319 32.0267 249.879 32.8C250.465 33.5733 251.145 33.96 251.919 33.96ZM279.686 33.84C280.779 34.0533 281.326 34.6533 281.326 35.64C281.326 36.3067 281.019 36.9067 280.406 37.44C279.819 37.9467 278.966 38.2 277.846 38.2C275.926 38.2 274.352 37.6133 273.126 36.44C271.926 35.24 271.326 33.68 271.326 31.76C271.326 30.72 271.859 29.9733 272.926 29.52C274.099 29.0133 274.939 28.48 275.446 27.92C275.952 27.3333 276.206 26.6267 276.206 25.8C276.206 25.32 276.099 24.96 275.886 24.72C275.699 24.48 275.459 24.36 275.166 24.36C274.446 24.36 273.646 24.88 272.766 25.92C271.912 26.96 271.112 28.3067 270.366 29.96C269.619 31.5867 269.032 33.2667 268.606 35C268.312 36.2533 267.966 37.1067 267.566 37.56C267.192 37.9867 266.592 38.2 265.766 38.2C264.939 38.2 264.326 37.9067 263.926 37.32C263.552 36.7067 263.299 35.7733 263.166 34.52C263.032 33.2667 262.966 31.4267 262.966 29C262.966 24.8933 263.379 20.6133 264.206 16.16C265.059 11.7067 266.299 7.97333 267.926 4.96C269.579 1.92 271.552 0.399998 273.846 0.399998C275.072 0.399998 276.059 0.933331 276.806 2C277.579 3.04 277.966 4.4 277.966 6.08C277.966 8.77333 277.179 11.5733 275.606 14.48C274.032 17.36 271.472 20.7333 267.926 24.6C267.846 25.9867 267.806 27.4133 267.806 28.88C269.086 25.5467 270.552 23.1333 272.206 21.64C273.859 20.12 275.406 19.36 276.846 19.36C278.179 19.36 279.246 19.8133 280.046 20.72C280.872 21.6267 281.286 22.7467 281.286 24.08C281.286 25.5467 280.912 26.8933 280.166 28.12C279.419 29.3467 278.139 30.44 276.326 31.4C276.486 32.2 276.806 32.76 277.286 33.08C277.792 33.3733 278.592 33.6267 279.686 33.84ZM273.006 4.36C272.526 4.36 271.992 5.05333 271.406 6.44C270.819 7.8 270.246 9.65333 269.686 12C269.152 14.32 268.712 16.8533 268.366 19.6C270.019 17.6533 271.379 15.5333 272.446 13.24C273.539 10.9467 274.086 8.86667 274.086 7C274.086 6.14667 273.992 5.49333 273.806 5.04C273.619 4.58667 273.352 4.36 273.006 4.36ZM298.211 38.2C297.011 38.2 296.024 37.6533 295.251 36.56C294.504 35.44 294.131 34.0533 294.131 32.4C294.131 30.4 294.264 28.5733 294.531 26.92C294.798 25.24 295.238 23.4667 295.851 21.6C296.118 20.8 296.491 20.2267 296.971 19.88C297.451 19.5333 298.211 19.36 299.251 19.36C299.838 19.36 300.238 19.4533 300.451 19.64C300.691 19.8267 300.811 20.1067 300.811 20.48C300.811 20.6933 300.664 21.4133 300.371 22.64C300.104 23.6267 299.891 24.52 299.731 25.32C299.198 28.12 298.931 29.9867 298.931 30.92C298.931 31.48 298.998 31.88 299.131 32.12C299.264 32.3333 299.478 32.44 299.771 32.44C300.171 32.44 300.664 32.04 301.251 31.24C301.864 30.44 302.504 29.2267 303.171 27.6C303.864 25.9733 304.531 23.9733 305.171 21.6C305.384 20.8 305.704 20.2267 306.131 19.88C306.584 19.5333 307.251 19.36 308.131 19.36C308.744 19.36 309.171 19.44 309.411 19.6C309.651 19.7333 309.771 20 309.771 20.4C309.771 21.0667 309.438 22.8933 308.771 25.88C308.024 29.2933 307.651 31.4 307.651 32.2C307.651 32.7067 307.758 33.1067 307.971 33.4C308.184 33.6667 308.464 33.8 308.811 33.8C309.344 33.8 309.971 33.48 310.691 32.84C311.438 32.1733 312.424 31.1067 313.651 29.64C313.971 29.2667 314.331 29.08 314.731 29.08C315.078 29.08 315.344 29.24 315.531 29.56C315.744 29.88 315.851 30.32 315.851 30.88C315.851 31.9467 315.598 32.7733 315.091 33.36C313.944 34.7733 312.704 35.9333 311.371 36.84C310.064 37.7467 308.571 38.2 306.891 38.2C305.611 38.2 304.664 37.7067 304.051 36.72C303.464 35.7333 303.171 34.3467 303.171 32.56C302.718 34.3733 302.038 35.7733 301.131 36.76C300.224 37.72 299.251 38.2 298.211 38.2ZM315.448 38.2C314.434 38.2 313.714 37.6667 313.288 36.6C312.888 35.5333 312.688 33.8267 312.688 31.48C312.688 28.0133 313.181 24.72 314.168 21.6C314.408 20.8267 314.794 20.2667 315.328 19.92C315.888 19.5467 316.661 19.36 317.648 19.36C318.181 19.36 318.554 19.4267 318.768 19.56C318.981 19.6933 319.088 19.9467 319.088 20.32C319.088 20.7467 318.888 21.7067 318.488 23.2C318.221 24.2667 318.008 25.2 317.848 26C317.688 26.8 317.554 27.7867 317.448 28.96C318.328 26.6667 319.314 24.8 320.408 23.36C321.501 21.92 322.568 20.8933 323.608 20.28C324.674 19.6667 325.648 19.36 326.528 19.36C328.261 19.36 329.128 20.2267 329.128 21.96C329.128 23 328.834 24.88 328.248 27.6C327.741 29.92 327.488 31.4533 327.488 32.2C327.488 33.2667 327.874 33.8 328.648 33.8C329.181 33.8 329.808 33.48 330.528 32.84C331.274 32.1733 332.261 31.1067 333.488 29.64C333.808 29.2667 334.168 29.08 334.568 29.08C334.914 29.08 335.181 29.24 335.368 29.56C335.581 29.88 335.688 30.32 335.688 30.88C335.688 31.9467 335.434 32.7733 334.928 33.36C333.781 34.7733 332.541 35.9333 331.208 36.84C329.901 37.7467 328.408 38.2 326.728 38.2C325.368 38.2 324.341 37.8133 323.648 37.04C322.954 36.24 322.608 35.0933 322.608 33.6C322.608 32.8533 322.794 31.52 323.168 29.6C323.514 27.92 323.688 26.76 323.688 26.12C323.688 25.6933 323.541 25.48 323.248 25.48C322.901 25.48 322.408 25.9333 321.768 26.84C321.154 27.72 320.514 28.8933 319.848 30.36C319.208 31.8267 318.688 33.3733 318.288 35C317.994 36.2533 317.648 37.1067 317.248 37.56C316.874 37.9867 316.274 38.2 315.448 38.2ZM337.051 38.2C335.531 38.2 334.291 37.6 333.331 36.4C332.398 35.2 331.931 33.6267 331.931 31.68C331.931 29.5467 332.425 27.5333 333.411 25.64C334.398 23.72 335.705 22.1867 337.331 21.04C338.985 19.8667 340.731 19.28 342.571 19.28C343.158 19.28 343.545 19.4 343.731 19.64C343.945 19.8533 344.118 20.2533 344.251 20.84C344.758 20.7333 345.318 20.68 345.931 20.68C346.571 20.68 347.065 20.84 347.411 21.16C347.758 21.48 347.931 21.9333 347.931 22.52C347.931 23.1333 347.798 24.2 347.531 25.72C347.238 27.3467 347.011 28.9067 346.851 30.4C346.691 31.8667 346.611 33.52 346.611 35.36C346.611 36.3733 346.398 37.1067 345.971 37.56C345.571 37.9867 344.905 38.2 343.971 38.2C343.065 38.2 342.385 37.9867 341.931 37.56C341.505 37.1067 341.291 36.3867 341.291 35.4L341.331 34.76C340.505 37.0533 339.078 38.2 337.051 38.2ZM338.611 34.16C339.358 34.16 340.038 33.64 340.651 32.6C341.265 31.56 341.811 29.7067 342.291 27.04L343.051 23C341.958 23.0267 340.945 23.4533 340.011 24.28C339.078 25.08 338.331 26.1467 337.771 27.48C337.211 28.8133 336.931 30.2267 336.931 31.72C336.931 32.52 337.078 33.1333 337.371 33.56C337.691 33.96 338.105 34.16 338.611 34.16ZM384.078 29.08C384.424 29.08 384.691 29.24 384.878 29.56C385.091 29.88 385.198 30.32 385.198 30.88C385.198 31.9467 384.944 32.7733 384.438 33.36C383.344 34.6933 382.144 35.84 380.838 36.8C379.531 37.7333 378.238 38.2 376.958 38.2C374.931 38.2 373.384 37.0133 372.318 34.64C371.198 36.0533 370.211 37 369.358 37.48C368.531 37.96 367.558 38.2 366.438 38.2C364.811 38.2 363.464 37.6 362.398 36.4C361.358 35.1733 360.838 33.5867 360.838 31.64C360.838 29.5067 361.291 27.5333 362.198 25.72C363.104 23.88 364.344 22.3867 365.918 21.24C367.518 20.0667 369.304 19.3733 371.278 19.16C371.784 13.9867 372.744 9.57333 374.158 5.92C375.598 2.24 377.478 0.399998 379.798 0.399998C380.944 0.399998 381.891 0.919998 382.638 1.96C383.411 3 383.798 4.57333 383.798 6.68C383.798 9.66667 383.064 13.16 381.598 17.16C380.131 21.16 378.171 25.2667 375.718 29.48C375.824 31.0267 376.051 32.1333 376.398 32.8C376.771 33.4667 377.238 33.8 377.798 33.8C378.518 33.8 379.251 33.48 379.997 32.84C380.744 32.2 381.744 31.1333 382.998 29.64C383.318 29.2667 383.678 29.08 384.078 29.08ZM379.358 4.32C378.851 4.32 378.344 5.22666 377.838 7.04C377.331 8.82667 376.891 11.1733 376.518 14.08C376.171 16.9867 375.918 20.0267 375.758 23.2C378.744 16.6933 380.238 11.4667 380.238 7.52C380.238 6.50667 380.144 5.72 379.958 5.16C379.798 4.6 379.598 4.32 379.358 4.32ZM367.838 34.16C368.344 34.16 368.851 33.96 369.358 33.56C369.864 33.1333 370.504 32.36 371.278 31.24C371.011 29.8 370.878 28.1867 370.878 26.4C370.878 25.76 370.904 24.72 370.958 23.28C369.491 23.7333 368.264 24.72 367.278 26.24C366.318 27.7333 365.838 29.4 365.838 31.24C365.838 33.1867 366.504 34.16 367.838 34.16ZM399.783 29.08C400.13 29.08 400.397 29.24 400.583 29.56C400.797 29.88 400.903 30.32 400.903 30.88C400.903 31.9467 400.65 32.7733 400.143 33.36C399.157 34.56 397.757 35.6667 395.943 36.68C394.157 37.6933 392.237 38.2 390.183 38.2C387.383 38.2 385.21 37.44 383.663 35.92C382.117 34.4 381.343 32.32 381.343 29.68C381.343 27.84 381.73 26.1333 382.503 24.56C383.277 22.96 384.343 21.6933 385.703 20.76C387.09 19.8267 388.65 19.36 390.383 19.36C391.93 19.36 393.17 19.8267 394.103 20.76C395.037 21.6667 395.503 22.9067 395.503 24.48C395.503 26.32 394.837 27.9067 393.503 29.24C392.197 30.5467 389.97 31.5867 386.823 32.36C387.49 33.5867 388.757 34.2 390.623 34.2C391.823 34.2 393.183 33.7867 394.703 32.96C396.25 32.1067 397.583 31 398.703 29.64C399.023 29.2667 399.383 29.08 399.783 29.08ZM389.703 23.28C388.717 23.28 387.877 23.8533 387.183 25C386.517 26.1467 386.183 27.5333 386.183 29.16V29.24C387.757 28.8667 388.997 28.3067 389.903 27.56C390.81 26.8133 391.263 25.9467 391.263 24.96C391.263 24.4533 391.117 24.0533 390.823 23.76C390.557 23.44 390.183 23.28 389.703 23.28ZM405.287 38.2C402.673 38.2 400.633 37.4667 399.167 36C397.727 34.5067 397.007 32.5467 397.007 30.12C397.007 27.96 397.433 26.0667 398.287 24.44C399.14 22.8133 400.247 21.56 401.607 20.68C402.967 19.8 404.393 19.36 405.887 19.36C407.353 19.36 408.487 19.8 409.287 20.68C410.113 21.5333 410.527 22.64 410.527 24C410.527 25.12 410.273 26.0667 409.767 26.84C409.287 27.6133 408.647 28 407.847 28C407.34 28 406.927 27.88 406.607 27.64C406.313 27.4 406.167 27.0667 406.167 26.64C406.167 26.4533 406.193 26.24 406.247 26C406.3 25.76 406.34 25.5867 406.367 25.48C406.5 25.08 406.567 24.7067 406.567 24.36C406.567 24.0133 406.473 23.7467 406.287 23.56C406.127 23.3733 405.887 23.28 405.567 23.28C404.953 23.28 404.38 23.56 403.847 24.12C403.313 24.6533 402.887 25.3867 402.567 26.32C402.247 27.2533 402.087 28.28 402.087 29.4C402.087 32.4933 403.433 34.04 406.127 34.04C407.22 34.04 408.393 33.68 409.647 32.96C410.927 32.2133 412.18 31.1067 413.407 29.64C413.727 29.2667 414.087 29.08 414.487 29.08C414.833 29.08 415.1 29.24 415.287 29.56C415.5 29.88 415.607 30.32 415.607 30.88C415.607 31.8933 415.353 32.72 414.847 33.36C413.593 34.9067 412.087 36.1067 410.327 36.96C408.593 37.7867 406.913 38.2 405.287 38.2ZM427.533 29.08C427.88 29.08 428.146 29.24 428.333 29.56C428.546 29.88 428.653 30.32 428.653 30.88C428.653 31.9467 428.4 32.7733 427.893 33.36C426.746 34.7733 425.493 35.9333 424.133 36.84C422.8 37.7467 421.28 38.2 419.573 38.2C417.226 38.2 415.48 37.1333 414.333 35C413.213 32.8667 412.653 30.1067 412.653 26.72C412.653 23.4667 413.066 19.76 413.893 15.6C414.746 11.44 415.986 7.86667 417.613 4.88C419.266 1.89333 421.226 0.399998 423.493 0.399998C424.773 0.399998 425.773 0.999998 426.493 2.2C427.24 3.37333 427.613 5.06667 427.613 7.28C427.613 10.4533 426.733 14.1333 424.973 18.32C423.213 22.5067 420.826 26.6533 417.813 30.76C418 31.8533 418.306 32.64 418.733 33.12C419.16 33.5733 419.72 33.8 420.413 33.8C421.506 33.8 422.466 33.4933 423.293 32.88C424.12 32.24 425.173 31.16 426.453 29.64C426.773 29.2667 427.133 29.08 427.533 29.08ZM422.613 4.36C422 4.36 421.306 5.46667 420.533 7.68C419.76 9.89333 419.08 12.64 418.493 15.92C417.906 19.2 417.586 22.3467 417.533 25.36C419.426 22.24 420.933 19.12 422.053 16C423.173 12.8533 423.733 9.98666 423.733 7.4C423.733 5.37333 423.36 4.36 422.613 4.36ZM429.949 38.2C428.296 38.2 426.976 37.6 425.989 36.4C425.003 35.2 424.509 33.6267 424.509 31.68C424.509 29.5467 425.003 27.5333 425.989 25.64C426.976 23.72 428.283 22.1867 429.909 21.04C431.563 19.8667 433.309 19.28 435.149 19.28C435.736 19.28 436.123 19.4 436.309 19.64C436.523 19.8533 436.696 20.2533 436.829 20.84C437.389 20.7333 437.976 20.68 438.589 20.68C439.896 20.68 440.549 21.1467 440.549 22.08C440.549 22.64 440.349 23.9733 439.949 26.08C439.336 29.1467 439.029 31.28 439.029 32.48C439.029 32.88 439.123 33.2 439.309 33.44C439.523 33.68 439.789 33.8 440.109 33.8C440.616 33.8 441.229 33.48 441.949 32.84C442.669 32.1733 443.643 31.1067 444.869 29.64C445.189 29.2667 445.549 29.08 445.949 29.08C446.296 29.08 446.563 29.24 446.749 29.56C446.963 29.88 447.069 30.32 447.069 30.88C447.069 31.9467 446.816 32.7733 446.309 33.36C445.216 34.72 444.056 35.8667 442.829 36.8C441.603 37.7333 440.416 38.2 439.269 38.2C438.389 38.2 437.576 37.9067 436.829 37.32C436.109 36.7067 435.563 35.88 435.189 34.84C433.803 37.08 432.056 38.2 429.949 38.2ZM431.389 34.16C431.976 34.16 432.536 33.8133 433.069 33.12C433.603 32.4267 433.989 31.5067 434.229 30.36L435.709 23C434.589 23.0267 433.549 23.4533 432.589 24.28C431.656 25.08 430.909 26.1467 430.349 27.48C429.789 28.8133 429.509 30.2267 429.509 31.72C429.509 32.5467 429.669 33.16 429.989 33.56C430.336 33.96 430.803 34.16 431.389 34.16ZM446.658 38.2C445.645 38.2 444.925 37.6667 444.498 36.6C444.098 35.5333 443.898 33.8267 443.898 31.48C443.898 28.0133 444.392 24.72 445.378 21.6C445.618 20.8267 446.005 20.2667 446.538 19.92C447.098 19.5467 447.872 19.36 448.858 19.36C449.392 19.36 449.765 19.4267 449.978 19.56C450.192 19.6933 450.298 19.9467 450.298 20.32C450.298 20.7467 450.098 21.7067 449.698 23.2C449.432 24.2667 449.218 25.2 449.058 26C448.898 26.8 448.765 27.7867 448.658 28.96C449.538 26.6667 450.525 24.8 451.618 23.36C452.712 21.92 453.778 20.8933 454.818 20.28C455.885 19.6667 456.858 19.36 457.738 19.36C459.472 19.36 460.338 20.2267 460.338 21.96C460.338 22.3067 460.218 23.1467 459.978 24.48C459.765 25.5467 459.658 26.2133 459.658 26.48C459.658 27.4133 459.992 27.88 460.658 27.88C461.405 27.88 462.365 27.2933 463.538 26.12C463.885 25.7733 464.245 25.6 464.618 25.6C464.965 25.6 465.232 25.76 465.418 26.08C465.632 26.3733 465.738 26.7733 465.738 27.28C465.738 28.2667 465.472 29.04 464.938 29.6C464.192 30.3733 463.312 31.04 462.298 31.6C461.312 32.1333 460.258 32.4 459.138 32.4C457.725 32.4 456.645 32.04 455.898 31.32C455.178 30.6 454.818 29.6267 454.818 28.4C454.818 28 454.858 27.6 454.938 27.2C454.992 26.6667 455.018 26.3067 455.018 26.12C455.018 25.6933 454.872 25.48 454.578 25.48C454.178 25.48 453.645 25.9333 452.978 26.84C452.338 27.72 451.698 28.8933 451.058 30.36C450.418 31.8267 449.898 33.3733 449.498 35C449.205 36.2533 448.858 37.1067 448.458 37.56C448.085 37.9867 447.485 38.2 446.658 38.2ZM466.942 38.2C465.288 38.2 463.968 37.6 462.982 36.4C461.995 35.2 461.502 33.6267 461.502 31.68C461.502 29.5467 461.995 27.5333 462.982 25.64C463.968 23.72 465.275 22.1867 466.902 21.04C468.555 19.8667 470.302 19.28 472.142 19.28C472.728 19.28 473.115 19.4 473.302 19.64C473.515 19.8533 473.688 20.2533 473.822 20.84C474.382 20.7333 474.968 20.68 475.582 20.68C476.888 20.68 477.542 21.1467 477.542 22.08C477.542 22.64 477.342 23.9733 476.942 26.08C476.328 29.1467 476.022 31.28 476.022 32.48C476.022 32.88 476.115 33.2 476.302 33.44C476.515 33.68 476.782 33.8 477.102 33.8C477.608 33.8 478.222 33.48 478.942 32.84C479.662 32.1733 480.635 31.1067 481.862 29.64C482.182 29.2667 482.542 29.08 482.942 29.08C483.288 29.08 483.555 29.24 483.742 29.56C483.955 29.88 484.062 30.32 484.062 30.88C484.062 31.9467 483.808 32.7733 483.302 33.36C482.208 34.72 481.048 35.8667 479.822 36.8C478.595 37.7333 477.408 38.2 476.262 38.2C475.382 38.2 474.568 37.9067 473.822 37.32C473.102 36.7067 472.555 35.88 472.182 34.84C470.795 37.08 469.048 38.2 466.942 38.2ZM468.382 34.16C468.968 34.16 469.528 33.8133 470.062 33.12C470.595 32.4267 470.982 31.5067 471.222 30.36L472.702 23C471.582 23.0267 470.542 23.4533 469.582 24.28C468.648 25.08 467.902 26.1467 467.342 27.48C466.782 28.8133 466.502 30.2267 466.502 31.72C466.502 32.5467 466.662 33.16 466.982 33.56C467.328 33.96 467.795 34.16 468.382 34.16ZM488.451 38.2C485.837 38.2 483.797 37.4667 482.331 36C480.891 34.5067 480.171 32.5467 480.171 30.12C480.171 27.96 480.597 26.0667 481.451 24.44C482.304 22.8133 483.411 21.56 484.771 20.68C486.131 19.8 487.557 19.36 489.051 19.36C490.517 19.36 491.651 19.8 492.451 20.68C493.277 21.5333 493.691 22.64 493.691 24C493.691 25.12 493.437 26.0667 492.931 26.84C492.451 27.6133 491.811 28 491.011 28C490.504 28 490.091 27.88 489.771 27.64C489.477 27.4 489.331 27.0667 489.331 26.64C489.331 26.4533 489.357 26.24 489.411 26C489.464 25.76 489.504 25.5867 489.531 25.48C489.664 25.08 489.731 24.7067 489.731 24.36C489.731 24.0133 489.637 23.7467 489.451 23.56C489.291 23.3733 489.051 23.28 488.731 23.28C488.117 23.28 487.544 23.56 487.011 24.12C486.477 24.6533 486.051 25.3867 485.731 26.32C485.411 27.2533 485.251 28.28 485.251 29.4C485.251 32.4933 486.597 34.04 489.291 34.04C490.384 34.04 491.557 33.68 492.811 32.96C494.091 32.2133 495.344 31.1067 496.571 29.64C496.891 29.2667 497.251 29.08 497.651 29.08C497.997 29.08 498.264 29.24 498.451 29.56C498.664 29.88 498.771 30.32 498.771 30.88C498.771 31.8933 498.517 32.72 498.011 33.36C496.757 34.9067 495.251 36.1067 493.491 36.96C491.757 37.7867 490.077 38.2 488.451 38.2ZM500.777 16.72C499.657 16.72 498.817 16.4667 498.257 15.96C497.697 15.4267 497.417 14.6933 497.417 13.76C497.417 12.8267 497.777 12.0533 498.497 11.44C499.244 10.8 500.164 10.48 501.257 10.48C502.244 10.48 503.044 10.72 503.657 11.2C504.271 11.68 504.577 12.36 504.577 13.24C504.577 14.3067 504.231 15.16 503.537 15.8C502.844 16.4133 501.924 16.72 500.777 16.72ZM500.457 38.2C498.724 38.2 497.457 37.5867 496.657 36.36C495.884 35.1333 495.497 33.5067 495.497 31.48C495.497 30.28 495.644 28.7467 495.937 26.88C496.257 24.9867 496.657 23.2267 497.137 21.6C497.377 20.7467 497.697 20.16 498.097 19.84C498.497 19.52 499.137 19.36 500.017 19.36C501.377 19.36 502.057 19.8133 502.057 20.72C502.057 21.3867 501.804 22.9333 501.297 25.36C500.657 28.2933 500.337 30.28 500.337 31.32C500.337 32.12 500.444 32.7333 500.657 33.16C500.871 33.5867 501.231 33.8 501.737 33.8C502.217 33.8 502.817 33.4667 503.537 32.8C504.257 32.1333 505.217 31.08 506.417 29.64C506.737 29.2667 507.097 29.08 507.497 29.08C507.844 29.08 508.111 29.24 508.297 29.56C508.511 29.88 508.617 30.32 508.617 30.88C508.617 31.9467 508.364 32.7733 507.857 33.36C505.217 36.5867 502.751 38.2 500.457 38.2ZM525.781 25.72C526.128 25.72 526.394 25.8933 526.581 26.24C526.768 26.5867 526.861 27.0267 526.861 27.56C526.861 28.84 526.474 29.6 525.701 29.84C524.101 30.4 522.341 30.72 520.421 30.8C519.914 33.04 518.914 34.84 517.421 36.2C515.928 37.5333 514.234 38.2 512.341 38.2C510.741 38.2 509.368 37.8133 508.221 37.04C507.101 36.2667 506.248 35.24 505.661 33.96C505.074 32.68 504.781 31.2933 504.781 29.8C504.781 27.7733 505.168 25.9733 505.941 24.4C506.714 22.8 507.781 21.56 509.141 20.68C510.501 19.7733 512.008 19.32 513.661 19.32C515.688 19.32 517.314 20.0267 518.541 21.44C519.794 22.8267 520.528 24.5467 520.741 26.6C521.994 26.52 523.488 26.2533 525.221 25.8C525.434 25.7467 525.621 25.72 525.781 25.72ZM512.661 33.96C513.514 33.96 514.248 33.6133 514.861 32.92C515.501 32.2267 515.928 31.2267 516.141 29.92C515.314 29.36 514.674 28.6267 514.221 27.72C513.794 26.8133 513.581 25.8533 513.581 24.84C513.581 24.4133 513.621 23.9867 513.701 23.56H513.501C512.434 23.56 511.541 24.08 510.821 25.12C510.128 26.1333 509.781 27.5733 509.781 29.44C509.781 30.9067 510.061 32.0267 510.621 32.8C511.208 33.5733 511.888 33.96 512.661 33.96ZM514.021 16.72C513.648 16.72 513.314 16.5867 513.021 16.32C512.754 16.0267 512.621 15.68 512.621 15.28C512.621 15.0933 512.688 14.84 512.821 14.52L516.541 6.2C516.781 5.66666 517.088 5.28 517.461 5.04C517.861 4.77333 518.301 4.64 518.781 4.64C519.448 4.64 520.034 4.88 520.541 5.36C521.074 5.84 521.341 6.44 521.341 7.16C521.341 7.90667 521.048 8.65333 520.461 9.4L515.301 16.04C514.954 16.4933 514.528 16.72 514.021 16.72ZM526.268 38.2C525.254 38.2 524.534 37.6667 524.108 36.6C523.708 35.5333 523.508 33.8267 523.508 31.48C523.508 28.0133 524.001 24.72 524.988 21.6C525.228 20.8267 525.614 20.2667 526.148 19.92C526.708 19.5467 527.481 19.36 528.468 19.36C529.001 19.36 529.374 19.4267 529.588 19.56C529.801 19.6933 529.908 19.9467 529.908 20.32C529.908 20.7467 529.708 21.7067 529.308 23.2C529.041 24.2667 528.828 25.2 528.668 26C528.508 26.8 528.374 27.7867 528.268 28.96C529.148 26.6667 530.134 24.8 531.228 23.36C532.321 21.92 533.388 20.8933 534.428 20.28C535.494 19.6667 536.468 19.36 537.348 19.36C538.201 19.36 538.841 19.5867 539.268 20.04C539.721 20.4667 539.948 21.1067 539.948 21.96C539.948 22.6533 539.801 23.96 539.508 25.88C539.241 27.5067 539.028 29.0533 538.868 30.52C538.708 31.96 538.628 33.5733 538.628 35.36C538.628 36.3733 538.414 37.1067 537.988 37.56C537.588 37.9867 536.921 38.2 535.988 38.2C535.108 38.2 534.468 37.9733 534.068 37.52C533.668 37.0667 533.468 36.3867 533.468 35.48C533.468 34.4133 533.654 32.6533 534.028 30.2C534.348 28.0667 534.508 26.7067 534.508 26.12C534.508 25.6933 534.361 25.48 534.068 25.48C533.721 25.48 533.228 25.9333 532.588 26.84C531.974 27.72 531.334 28.8933 530.668 30.36C530.028 31.8267 529.508 33.3733 529.108 35C528.814 36.2533 528.468 37.1067 528.068 37.56C527.694 37.9867 527.094 38.2 526.268 38.2Z" fill="white"/>
</svg>
